<svg xmlns="http://www.w3.org/2000/svg" viewBox="0 0 28 26" width="28" height="26">
	<style>
		tspan { white-space:pre }
		.shp0 { fill: #282727;stroke: #767676 } 
	</style>
	<path id="копирайт" class="shp0" d="M25.29 18.97C24.14 20.88 22.54 22.36 20.48 23.42C18.42 24.47 16.26 25 14.01 25C11.76 25 9.6 24.47 7.54 23.42C5.47 22.36 3.87 20.88 2.72 18.97C1.57 17.07 1 15.08 1 13.01C1 10.92 1.58 8.91 2.75 6.99C3.91 5.06 5.54 3.58 7.62 2.55C9.69 1.52 11.83 1 14.01 1C16.19 1 18.32 1.52 20.4 2.55C22.48 3.58 24.1 5.06 25.26 6.99C26.42 8.91 27 10.92 27 13.01C27 15.08 26.43 17.07 25.29 18.97ZM23.39 7.99C22.42 6.38 21.07 5.15 19.33 4.28C17.6 3.42 15.82 2.99 14.01 2.99C12.18 2.99 10.4 3.42 8.68 4.28C6.95 5.15 5.6 6.38 4.62 7.99C3.64 9.6 3.15 11.27 3.15 13.01C3.15 14.74 3.63 16.39 4.59 17.98C5.55 19.56 6.89 20.8 8.62 21.69C10.34 22.57 12.14 23.01 14.01 23.01C15.88 23.01 17.68 22.57 19.4 21.69C21.12 20.8 22.46 19.56 23.42 17.98C24.37 16.39 24.85 14.74 24.85 13.01C24.85 11.27 24.36 9.6 23.39 7.99ZM13.98 18.1C15.96 18.1 17.77 16.81 18.5 14.9L20.85 15.65C19.78 18.49 17.02 20.4 13.98 20.4C9.93 20.4 6.63 17.11 6.63 13.06C6.63 9.02 9.93 5.74 13.98 5.74C16.53 5.74 18.87 7.03 20.22 9.19L18.06 10.34C17.15 8.9 15.63 8.04 13.98 8.04C11.3 8.04 9.13 10.29 9.13 13.06C9.13 15.84 11.3 18.1 13.98 18.1Z" />
</svg>